<svg id="Camada_1" data-name="Camada 1" xmlns="http://www.w3.org/2000/svg" viewBox="0 0 535 171"><defs><style>.cls-1{fill:none;}.cls-2{fill:#616162;}.cls-3{fill:#6cc3c6;}</style></defs><rect class="cls-1" width="535" height="171"/><path class="cls-2" d="M237,64.76a93.35,93.35,0,0,0-24.3,3.41V51.58h-8v51.27h6.59l.62-3.86c3.51,1.19,14.27,4.52,25.41,4.52,19,0,28.66-6.54,28.66-19.44C266,70.89,256.77,64.76,237,64.76Zm.27,31.75a90.86,90.86,0,0,1-24.57-4.15V75.43A80.18,80.18,0,0,1,237,71.75c18.23,0,20.75,5.92,20.75,12.32S255.3,96.51,237.3,96.51Z" transform="translate(0.06 -0.49)"/><path class="cls-2" d="M302.26,64.76c-11.56,0-18.32,3-20.52,4.15l-.48-3.49h-6.61v37.43h8.05V75.37c1.86-.84,8.86-3.62,19.43-3.62a57.92,57.92,0,0,1,10.79,1l1,.24.72-7.19-1.17-.19A68,68,0,0,0,302.26,64.76Z" transform="translate(0.06 -0.49)"/><path class="cls-2" d="M371.63,91.21a55.53,55.53,0,0,1-23.78,5.3c-16.27,0-18.51-5.63-18.51-11.72V65.42h-8V85.06c0,12.58,8.44,18.45,26.56,18.45a60.33,60.33,0,0,0,24.59-5l.55,4.38h6.69V65.42h-8.05Z" transform="translate(0.06 -0.49)"/><path class="cls-2" d="M421,64.76c-10.44,0-20.2,3.42-24.07,5-.05-.36-.11-.72-.16-1.07-.12-.78-.24-1.56-.34-2.41l-.1-.82h-6.63v37.43h8.05V76.41c4.12-2,13.84-4.66,23.25-4.66,15.8,0,19,4.69,19,11.72v19.38h8.05V83.21C448.06,70.45,439.71,64.76,421,64.76Z" transform="translate(0.06 -0.49)"/><path class="cls-2" d="M481.13,64.76a97.14,97.14,0,0,0-20.44,2.14l-1.11.23L460.74,74l.93-.17.46-.09a93.15,93.15,0,0,1,19-1.94c14.78,0,22.92,2.81,22.92,7.9v1.84c-3.25-.29-15.52-1.32-24.23-1.32-11,0-15.82,1.77-17.71,2.82a10.35,10.35,0,0,0-.07,18.1c3.14,1.73,8.82,2.68,16,2.68a81.93,81.93,0,0,0,26.86-4.61l.61,3.69h6.59V79.46C512.1,70.12,500.81,64.76,481.13,64.76ZM466.27,89c1.1-.81,4.33-2.19,13.55-2.19,9.92,0,21.11.86,24.23,1.12v4.67a84.25,84.25,0,0,1-25.88,4.22c-7.69,0-10.69-1.08-11.79-1.73A3.41,3.41,0,0,1,464.8,92,3.47,3.47,0,0,1,466.27,89Z" transform="translate(0.06 -0.49)"/><path class="cls-3" d="M220.19,118.86a61,61,0,0,0-12.79,1.34l-1,.21.85,4.93,1.21-.23a57.41,57.41,0,0,1,11.75-1.2c9,0,13.89,1.62,13.89,4.56v.76c-2.47-.21-9.58-.79-14.71-.79-6.92,0-10,1.13-11.18,1.8a6.57,6.57,0,0,0-3.51,5.89,6.46,6.46,0,0,0,3.47,6c2.57,1.42,6.92,1.71,10.11,1.71a51,51,0,0,0,16.42-2.75l.36,2.18h4.75V128.35C239.79,122.32,232.64,118.86,220.19,118.86Zm-9,15.68c.52-.39,2.37-1.29,8.21-1.29s12.41.48,14.71.66v2.33a52.06,52.06,0,0,1-15.74,2.52c-4.7,0-6.49-.64-7.15-1a1.74,1.74,0,0,1-.81-1.61A1.79,1.79,0,0,1,211.16,134.54Z" transform="translate(0.06 -0.49)"/><path class="cls-3" d="M244.48,124.32h22.09l-.56.36-22.35,15.59v3h34.7v-5.05H255.45a5.72,5.72,0,0,0,.48-.32l22.43-15.63v-3H244.48Z" transform="translate(0.06 -0.49)"/><path class="cls-3" d="M296.92,118.86a60.93,60.93,0,0,0-12.78,1.34l-1,.21.85,4.93,1.21-.23a57.38,57.38,0,0,1,11.74-1.2c9,0,13.9,1.62,13.9,4.56v.76c-2.48-.21-9.58-.79-14.71-.79-6.92,0-10,1.13-11.18,1.8a6.57,6.57,0,0,0-3.51,5.89,6.46,6.46,0,0,0,3.47,6c2.57,1.42,6.91,1.71,10.11,1.71a51,51,0,0,0,16.42-2.75l.36,2.18h4.75V128.35C316.53,122.32,309.38,118.86,296.92,118.86Zm-9,15.68c.52-.39,2.37-1.29,8.21-1.29s12.41.48,14.71.66v2.33a52.06,52.06,0,0,1-15.74,2.52c-4.7,0-6.49-.64-7.15-1a1.74,1.74,0,0,1-.81-1.61A1.79,1.79,0,0,1,287.9,134.54Z" transform="translate(0.06 -0.49)"/><path class="cls-3" d="M360.4,118.86a25,25,0,0,0-12.53,3.54c-2.12-2.32-5.6-3.54-10.12-3.54a23.56,23.56,0,0,0-10.62,2.65l-.33-2.24H322v24h5.71V126.78a19,19,0,0,1,9.8-2.87c4.72,0,7,1.76,7,5.38v14h5.71v-14a13.48,13.48,0,0,0-.22-2.37,19.08,19.08,0,0,1,10-3c4.72,0,7,1.76,7,5.38v14h5.7v-14C372.79,126.13,371.58,118.86,360.4,118.86Z" transform="translate(0.06 -0.49)"/><path class="cls-3" d="M398.77,118.86a58.92,58.92,0,0,0-14.76,2v-10.2H378.3v32.57h4.75l.37-2.28a53.1,53.1,0,0,0,15.51,2.69c12.06,0,18.17-4.18,18.17-12.43C417.1,122.79,411.27,118.86,398.77,118.86Zm.17,19.74A56,56,0,0,1,384,136.11v-10a49.75,49.75,0,0,1,14.76-2.19c11,0,12.54,3.51,12.54,7.31C411.31,135.65,409.21,138.6,398.94,138.6Z" transform="translate(0.06 -0.49)"/><path class="cls-3" d="M454,143.24h4.82v-24h-5.71v16.17a35,35,0,0,1-14.43,3.16c-9.8,0-11.15-3.33-11.15-6.93v-12.4h-5.71v12.56c0,8.06,5.36,11.82,16.86,11.82a38.16,38.16,0,0,0,15-3Z" transform="translate(0.06 -0.49)"/><path class="cls-3" d="M465.45,143.62c0,3.46-1,5.22-6.2,5.22a34.19,34.19,0,0,1-5.17-.48l-1-.17-.08,1c0,.51-.07,1-.1,1.55s-.06,1.06-.1,1.56l-.07.8.78.18a31.4,31.4,0,0,0,5.82.6c8.07,0,11.82-3.11,11.82-9.78V119.27h-5.7Z" transform="translate(0.06 -0.49)"/><path class="cls-3" d="M492.5,118.86a60.93,60.93,0,0,0-12.78,1.34l-1,.21.84,4.93,1.22-.23a57.38,57.38,0,0,1,11.74-1.2c9,0,13.9,1.62,13.9,4.56v.76c-2.48-.21-9.59-.79-14.72-.79-6.91,0-10,1.13-11.18,1.8a6.57,6.57,0,0,0-3.51,5.89,6.46,6.46,0,0,0,3.47,6c2.57,1.42,6.92,1.71,10.12,1.71A50.92,50.92,0,0,0,507,141.06l.37,2.18h4.74V128.35C512.1,122.32,505,118.86,492.5,118.86Zm-9,15.68c.53-.39,2.38-1.29,8.21-1.29s12.42.48,14.72.66v2.33a52.17,52.17,0,0,1-15.74,2.52c-4.7,0-6.5-.64-7.16-1a1.75,1.75,0,0,1-.8-1.61A1.8,1.8,0,0,1,483.47,134.54Z" transform="translate(0.06 -0.49)"/><path class="cls-3" d="M190,79.62c-.41-5.23-3.33-9.47-6.88-10.14s-4.45-.86-4.55-.91-3.81-.7-3.81-.68-4.18-.79-9.57-1.82h0l-.3-.06-.4-.07-6.7-1.28-10.41-2L147,62.6V72l10.83,2h0l4.61.85.46.09,8.48,1.57c10.23,1.79,11.57,1.79,11.57,12.39v20.75c.5,10.83.3,15.32-10.62,17L98.1,141.22c-5.7,1.23-10.37-2.54-10.37-8.37V71.55a8.51,8.51,0,0,1,10.42-8.66l9.51,1.77,1,.19.5.09L125,67.87l.25,0V58.47l-.25,0-10.41-2h0l-.36-.07L98.14,53.31C75.67,49.52,66,51,66,67.52v70c0,5.83,4.51,12.16,10,14.07l1.7.58A41.87,41.87,0,0,0,98,153l73.65-18.46c11.42-3,12.12.12,12.81,2.65l1.63,7c.56,2.68,4.18,4.64,4.18-1.46v-4.05Z" transform="translate(0.06 -0.49)"/><path class="cls-2" d="M136.94,20.42l-1.7-.59A42,42,0,0,0,115,19L41.3,37.41c-11.43,3-12.12-.12-12.81-2.66l-1.64-7c-.55-2.68-4.17-4.64-4.17,1.46v4L23,92.37c.41,5.23,3.32,9.47,6.88,10.14s4.45.86,4.55.9,3.8.71,3.8.68,4.19.8,9.58,1.83h0l.16,0,.54.1,6.7,1.27,10.41,2h0l.41.08V100L55.17,98h0L41.62,95.5c-10.23-1.78-11.57-1.78-11.57-12.39V62.36c-.5-10.83-.3-15.31,10.62-17l74.19-14.56c5.7-1.22,10.37,2.55,10.37,8.38v61.29a8.52,8.52,0,0,1-10.42,8.67l-9.51-1.77h0l-5.69-1.06L88,104.11h0l-.25,0v9.45l.25,0h0l10.41,2h0l4.19.8h0l12.23,2.32c22.48,3.8,32.15,2.3,32.15-14.2v-70C147,28.65,142.45,22.33,136.94,20.42Z" transform="translate(0.06 -0.49)"/></svg>